<svg fill="#000000" xmlns="http://www.w3.org/2000/svg"  viewBox="0 0 24 24" width="48px" height="48px"><path d="M18,9v1.77C17.47,10.29,16.77,10,16,10H8c-0.77,0-1.47,0.29-2,0.77V9c0-3.31,2.69-6,6-6S18,5.69,18,9z"/><path d="M18,15.23V22h-2v-1c0-1.1-0.9-2-2-2h-4c-1.1,0-2,0.9-2,2v1H6v-6.77C6.53,15.71,7.23,16,8,16h8 C16.77,16,17.47,15.71,18,15.23z"/><path fill="none" stroke="#000000" stroke-miterlimit="10" stroke-width="2" d="M16,16H8c-1.657,0-3-1.343-3-3v0 c0-1.657,1.343-3,3-3h8c1.657,0,3,1.343,3,3v0C19,14.657,17.657,16,16,16z"/><rect width="2" height="2" x="8" y="12"/><rect width="2" height="2" x="14" y="12"/><line x1="12" x2="12" y2="3" fill="none" stroke="#000000" stroke-miterlimit="10" stroke-width="2"/><path d="M14,5h-4V4c0-1.105,0.895-2,2-2h0c1.105,0,2,0.895,2,2V5z"/></svg>