<svg fill="#000000" xmlns="http://www.w3.org/2000/svg"  viewBox="0 0 24 24" width="48px" height="48px"><path d="M 17 3 L 7 3 L 2 9.101563 L 12 21 L 22 9.101563 Z M 16 5 L 19.601563 9 L 17 11.898438 C 16.800781 10.699219 16 9.101563 13 9 C 10.800781 8.898438 8 9.398438 8 8 C 8 6.800781 10.101563 5.898438 12 6 C 14.101563 6.101563 14.800781 7.199219 15 8 L 18 8 C 17.898438 6.398438 15.898438 5 12 5 Z M 8 5 L 12 5 C 9.699219 5 6.300781 5.300781 5.699219 8.601563 C 5.101563 11.5 7.800781 12 11 12 C 11.5 12 12.601563 12 13 12 C 14 12 14.898438 12.398438 15 13 C 15.199219 14.898438 11.101563 16 10 14 L 8.800781 14 L 4.398438 9 Z M 10.398438 15.800781 C 11.398438 16.101563 12.5 16.101563 13.601563 15.898438 L 12 17.699219 Z"/></svg>